<?xml version="1.0" encoding="UTF-8" standalone="no"?>
<svg width="20px" height="20px" viewBox="0 0 20 20" version="1.1" xmlns="http://www.w3.org/2000/svg" xmlns:xlink="http://www.w3.org/1999/xlink">
    <!-- Generator: Sketch 3.6.1 (26313) - http://www.bohemiancoding.com/sketch -->
    <title>lupao</title>
    <desc>Created with Sketch.</desc>
    <defs>
        <path id="path-1" d="M8.5,8.99984634 L8.5,0.904912346 L0.404912309,0.904912346 L0.404912309,8.99984634 L8.5,8.99984634 L8.5,8.99984634 Z"/>
    </defs>
    <g id="Page-1" stroke="none" stroke-width="1" fill="none" fill-rule="evenodd">
        <g id="768" transform="translate(-677.000000, -23.000000)">
            <g id="Group-3-Copy-4" transform="translate(-5.000000, 0.000000)">
                <g id="lupao" transform="translate(682.000000, 23.000000)">
                    <path d="M7.5,13 C4.46,13 2,10.539 2,7.5 C2,4.46 4.46,1.999 7.5,1.999 C10.53,1.999 13,4.46 13,7.5 C13,10.539 10.53,13 7.5,13 M7.5,0 C3.35,0 0,3.36 0,7.5 C0,11.64 3.35,15 7.5,15 C11.64,15 15,11.64 15,7.5 C15,3.36 11.64,0 7.5,0" id="Fill-1" fill="#0669DE"/>
                    <g id="Group-5" transform="translate(11.000000, 10.511700)">
                        <mask id="mask-2" fill="white">
                            <use xlink:href="#path-1"/>
                        </mask>
                        <g id="Clip-4"/>
                        <path d="M8.2202,8.7197 C7.8292,9.1107 7.1752,9.0897 6.7592,8.6737 L0.7312,2.6457 C0.3152,2.2287 0.2942,1.5747 0.6842,1.1847 C1.0752,0.7937 1.7292,0.8157 2.1452,1.2307 L8.1742,7.2587 C8.5902,7.6757 8.6112,8.3287 8.2202,8.7197" id="Fill-3" fill="#0669DE" mask="url(#mask-2)"/>
                    </g>
                </g>
            </g>
        </g>
    </g>
</svg>